<?xml version="1.0" standalone="no"?>
<!DOCTYPE svg PUBLIC "-//W3C//DTD SVG 20010904//EN"
 "http://www.w3.org/TR/2001/REC-SVG-20010904/DTD/svg10.dtd">
<svg version="1.0" xmlns="http://www.w3.org/2000/svg"
 width="1200.000000pt" height="1200.000000pt" viewBox="0 0 1200.000000 1200.000000"
 preserveAspectRatio="xMidYMid meet">
<metadata>
Created by potrace 1.15, written by Peter Selinger 2001-2017
</metadata>
<g transform="translate(0.000000,1200.000000) scale(0.100000,-0.100000)"
fill="#000000" stroke="none">
<path d="M2176 11759 c-176 -26 -369 -100 -523 -202 -287 -187 -484 -474 -566
-822 l-22 -90 -3 -4615 c-2 -4171 -1 -4626 13 -4724 71 -486 412 -895 875
-1050 213 -71 -112 -66 4050 -66 4156 0 3838 -5 4047 65 199 66 349 160 504
315 192 191 307 404 366 680 17 81 18 280 18 4725 0 5084 5 4691 -61 4893
-139 428 -476 743 -924 866 l-115 31 -3800 1 c-2090 1 -3826 -2 -3859 -7z
m7616 -344 c389 -69 682 -345 780 -731 22 -88 23 -95 23 -864 l0 -775 -4598
-3 -4598 -2 3 782 4 783 26 95 c74 268 229 472 464 605 88 50 202 91 307 110
110 20 7478 20 7589 0z m799 -3477 c1 -420 1 -844 0 -943 0 -99 0 -1340 -1
-2757 l0 -2577 -4592 2 -4593 2 -3 3505 c-1 1928 0 3511 3 3518 3 9 932 12
4595 12 l4590 0 1 -762z m-11 -6623 c0 -2 -6 -28 -14 -57 -93 -346 -342 -595
-701 -700 l-80 -23 -3758 -3 c-3673 -2 -3760 -2 -3852 17 -278 57 -522 239
-658 491 -34 63 -78 180 -92 248 l-7 32 4581 0 c2520 0 4581 -2 4581 -5z"/>
<path d="M2817 10949 c-286 -37 -526 -252 -603 -539 -23 -86 -23 -261 0 -350
29 -112 91 -223 172 -309 88 -94 172 -150 285 -193 72 -27 101 -32 206 -36
153 -6 239 12 366 76 177 88 318 264 367 458 27 104 27 254 0 358 -72 283
-319 499 -611 536 -92 11 -86 11 -182 -1z"/>
<path d="M4758 10949 c-93 -12 -216 -59 -298 -114 -307 -204 -410 -606 -238
-938 58 -113 181 -236 294 -294 131 -68 213 -86 368 -80 109 4 144 9 208 32
224 78 402 272 464 505 25 97 23 263 -5 365 -97 347 -437 572 -793 524z"/>
<path d="M7110 10946 c-153 -33 -269 -154 -300 -311 -15 -81 -9 -795 8 -845
36 -109 132 -210 237 -249 57 -21 57 -21 1128 -19 l1072 3 58 29 c72 37 150
118 185 193 l27 58 0 430 0 430 -31 66 c-56 117 -163 198 -290 219 -91 15
-2024 12 -2094 -4z m2068 -348 c9 -9 12 -103 12 -359 0 -303 -2 -350 -16 -363
-14 -14 -119 -16 -1008 -16 -810 0 -996 2 -1004 13 -17 20 -18 703 -1 723 10
12 155 14 1008 14 762 0 1000 -3 1009 -12z"/>
<path d="M5782 8290 c-545 -40 -1041 -208 -1492 -505 -226 -149 -260 -184
-260 -275 0 -40 29 -112 51 -126 7 -4 -21 -39 -73 -93 -46 -47 -98 -103 -115
-123 l-31 -37 -19 21 c-25 28 -91 58 -131 58 -76 0 -123 -40 -251 -219 -547
-763 -719 -1749 -465 -2659 89 -320 243 -649 431 -920 521 -751 1322 -1233
2223 -1336 177 -21 523 -21 700 0 505 57 979 233 1395 515 1013 687 1527 1879
1334 3089 -193 1211 -1120 2223 -2309 2520 -328 81 -675 113 -988 90z m493
-1146 c743 -100 1378 -631 1614 -1350 71 -217 131 -629 89 -611 -181 76 -250
95 -378 103 -176 11 -339 -31 -506 -132 -137 -82 -187 -98 -319 -98 -125 0
-183 17 -290 85 -166 105 -294 142 -485 142 -191 0 -319 -37 -485 -142 -107
-67 -165 -84 -290 -85 -132 0 -180 15 -321 100 -256 155 -551 174 -818 54 -38
-16 -70 -30 -72 -30 -7 0 -4 93 6 185 28 250 90 469 194 680 102 207 198 345
351 504 450 467 1066 682 1710 595z m-1730 -2215 c67 -12 126 -39 243 -108 45
-27 119 -60 165 -75 91 -29 250 -49 312 -39 l40 6 -34 -38 c-29 -33 -33 -43
-28 -77 6 -48 28 -73 74 -89 69 -22 133 22 133 92 0 22 -4 39 -10 39 -5 0 -10
-11 -10 -25 0 -63 -56 -109 -105 -87 -14 7 -25 15 -25 20 0 5 28 35 61 67 l62
59 -29 23 c-27 22 -28 23 -7 23 30 0 195 56 241 82 20 12 60 36 87 53 89 57
166 79 285 79 119 0 196 -22 285 -79 91 -58 124 -74 217 -105 231 -77 502 -51
705 68 132 77 185 101 258 113 83 14 186 6 259 -20 65 -23 216 -118 216 -136
0 -8 -7 -42 -15 -77 -78 -330 -263 -661 -509 -910 -100 -101 -221 -202 -234
-194 -5 3 -26 -13 -48 -35 -41 -42 -121 -93 -249 -157 -234 -118 -521 -196
-762 -207 -110 -5 -131 -4 -142 9 -8 9 -19 16 -25 16 -6 0 -4 -4 4 -10 29 -18
1 -20 -121 -10 -309 27 -601 120 -859 275 -81 48 -275 193 -313 233 -28 29
-28 31 -13 60 9 17 16 40 16 51 0 17 15 10 95 -44 255 -170 561 -289 877 -340
72 -12 114 -24 127 -36 22 -21 43 -27 23 -7 -7 7 -12 14 -12 18 0 3 75 4 167
2 253 -5 504 31 720 103 159 53 213 96 247 198 56 167 -57 336 -237 354 -42 4
-72 -2 -157 -30 -207 -69 -289 -82 -530 -81 -240 0 -322 12 -535 81 -133 43
-346 148 -352 174 -3 12 -14 19 -28 19 -13 0 -44 19 -71 44 -41 37 -47 46 -36
59 16 19 -3 36 -21 18 -8 -8 -17 -5 -34 11 -19 18 -26 20 -32 9 -7 -11 -15
-11 -46 -1 -51 17 -151 8 -201 -18 -44 -22 -93 -73 -121 -125 -13 -23 -18 -55
-18 -112 0 -69 4 -89 28 -134 32 -63 32 -61 9 -61 -10 0 -24 -6 -31 -12 -16
-17 -58 29 -151 168 -131 196 -260 496 -285 666 l-7 45 89 57 c48 31 98 56
111 56 12 0 22 4 22 9 0 24 172 37 265 20z"/>
<path d="M5114 4516 c-26 -26 -34 -42 -34 -71 0 -49 53 -105 99 -105 45 0 86
24 100 59 14 32 12 72 -4 71 -9 0 -11 -7 -14 -52 -2 -28 -42 -58 -78 -58 -58
0 -54 26 16 93 l63 61 -24 18 c-38 29 -85 23 -124 -16z"/>
</g>
</svg>
